<svg xmlns="http://www.w3.org/2000/svg" viewBox="0 0 108 108" width="432" height="432" role="img" aria-label="Lunchbox Companion (adaptive foreground)">
<g transform="translate(24 24) scale(0.234375)"><rect x="92" y="18" width="72" height="28" rx="14" fill="#1C1B18"></rect><rect x="28" y="40" width="200" height="190" rx="30" fill="#2FB5A5"></rect><rect x="28" y="40" width="200" height="190" rx="30" fill="none" stroke="#1C1B18" stroke-width="12"></rect><rect x="50" y="62" width="98" height="146" rx="18" fill="#F7F5EE"></rect>
<path d="M68 62 h62 a18 18 0 0 1 18 18 v10 h-98 v-10 a18 18 0 0 1 18 -18 z" fill="rgba(28,27,24,0.14)"></path>
<rect x="50" y="62" width="98" height="146" rx="18" fill="none" stroke="#1C1B18" stroke-width="9"></rect><path d="M78 112l41 23-41 23z" fill="#FFD166" stroke="#1C1B18" stroke-width="9" stroke-linejoin="round"></path><path d="M168 137v-11a15 15 0 0 1 29 0v11" fill="none" stroke="#1C1B18" stroke-width="9" stroke-linecap="round"></path>
<rect x="157" y="137" width="52" height="42" rx="9" fill="#FFD166" stroke="#1C1B18" stroke-width="9"></rect><circle cx="183" cy="154" r="6" fill="#1C1B18"></circle><rect x="180" y="154" width="6" height="14" rx="3" fill="#1C1B18"></rect></g>
</svg>
